<?xml version="1.0" standalone="no"?>
<!DOCTYPE svg PUBLIC "-//W3C//DTD SVG 20010904//EN"
 "http://www.w3.org/TR/2001/REC-SVG-20010904/DTD/svg10.dtd">
<svg version="1.0" xmlns="http://www.w3.org/2000/svg"
 width="256.000000pt" height="256.000000pt" viewBox="0 0 256.000000 256.000000"
 preserveAspectRatio="xMidYMid meet">

<g transform="translate(0.000000,256.000000) scale(0.100000,-0.100000)"
fill="#000000" stroke="none">
<path d="M1242 2334 c-32 -22 -35 -30 -113 -295 -92 -317 -119 -387 -170 -438
-51 -51 -120 -78 -444 -172 -263 -77 -305 -98 -305 -149 0 -51 42 -72 305
-149 324 -94 393 -121 444 -172 51 -51 78 -121 171 -439 39 -135 78 -255 86
-268 34 -52 94 -52 128 0 8 13 47 133 86 268 94 319 120 388 171 439 51 51
120 77 439 171 135 39 255 78 268 86 52 34 52 94 0 128 -13 8 -133 47 -268 86
-319 94 -388 120 -439 171 -51 51 -78 121 -170 438 -40 134 -76 252 -81 262
-13 23 -50 49 -70 49 -9 0 -26 -7 -38 -16z m85 -509 c24 -80 58 -176 75 -213
43 -87 122 -167 210 -209 61 -30 316 -113 346 -113 6 0 12 -3 12 -7 0 -5 -46
-21 -103 -37 -368 -104 -440 -172 -540 -511 -23 -79 -45 -145 -49 -145 -5 0
-8 6 -8 13 0 29 -83 284 -113 345 -43 89 -122 169 -210 210 -37 18 -133 51
-212 75 -80 23 -145 44 -145 47 0 3 53 20 117 38 361 102 433 174 535 535 18
64 35 117 38 117 3 0 24 -66 47 -145z"/>
<path d="M900 2256 c-279 -114 -496 -334 -600 -608 -26 -69 -25 -94 5 -123 46
-47 114 -26 136 43 44 137 163 305 282 400 73 58 200 129 269 152 69 21 90 89
43 135 -30 31 -62 31 -135 1z"/>
<path d="M1525 2255 c-47 -46 -26 -114 43 -136 137 -44 305 -163 400 -282 58
-73 129 -200 152 -269 21 -69 89 -90 135 -43 30 29 31 54 5 123 -106 278 -334
506 -612 612 -69 26 -94 25 -123 -5z"/>
<path d="M305 1035 c-30 -29 -31 -54 -5 -124 105 -274 337 -506 611 -611 70
-26 95 -25 124 5 47 46 26 114 -43 135 -133 43 -306 166 -400 283 -58 73 -129
200 -152 269 -21 69 -89 90 -135 43z"/>
<path d="M2153 1045 c-12 -8 -27 -32 -33 -53 -23 -69 -94 -196 -152 -269 -94
-117 -267 -240 -400 -283 -69 -21 -90 -89 -43 -135 29 -30 54 -31 123 -5 276
105 507 336 612 611 26 70 25 95 -5 124 -28 29 -70 32 -102 10z"/>
</g>
</svg>
